# xmcd
#
# Track frame offsets: 
#        225
#        23643
#        61593
#        80530
#        110068
#        148418
#        179770
#        200788
#        217355
#
# Disc length: 3314 seconds
#
# Revision: 6
# Processed by: cddbd v1.5.2PL0 Copyright (c) Steve Scherf et al.
# Submitted via: ExactAudioCopy v1.0b4
#
DISCID=920cef09
DTITLE=Dire Straits - Brothers In Arms [9 25264-2]
DYEAR=1985
DGENRE=Rock
TTITLE0=So Far Away
TTITLE1=Money For Nothing
TTITLE2=Walk Of Life
TTITLE3=Your Latest Trick
TTITLE4=Why Worry
TTITLE5=Ride Across The River
TTITLE6=The Man's Too Strong
TTITLE7=One World
TTITLE8=Brothers In Arms
EXTD=
EXTT0=
EXTT1=
EXTT2=
EXTT3=
EXTT4=
EXTT5=
EXTT6=
EXTT7=
EXTT8=
PLAYORDER=
